Coordinates
version=1
nRows=5
nColumns=40
inDegrees=yes

Units are S.I. units (second, meters, Newtons, ...)
Angles are in degrees.

endheader
time	pelvis_tilt	pelvis_list	pelvis_rotation	pelvis_tx	pelvis_ty	pelvis_tz	hip_flexion_r	hip_adduction_r	hip_rotation_r	knee_angle_r	knee_angle_r_beta	ankle_angle_r	subtalar_angle_r	mtp_angle_r	hip_flexion_l	hip_adduction_l	hip_rotation_l	knee_angle_l	knee_angle_l_beta	ankle_angle_l	subtalar_angle_l	mtp_angle_l	lumbar_extension	lumbar_bending	lumbar_rotation	arm_flex_r	arm_add_r	arm_rot_r	elbow_flex_r	pro_sup_r	wrist_flex_r	wrist_dev_r	arm_flex_l	arm_add_l	arm_rot_l	elbow_flex_l	pro_sup_l	wrist_flex_l	wrist_dev_l
     56.84000000	     -1.21325568	     -3.60839807	      5.02278661	      0.95927096	      0.91600293	      0.53186635	     14.46103144	      4.93389964	     -9.59808240	     29.17607086	     29.17607086	     17.41944813	    -12.09768994	     -0.89709962	     32.49043115	    -10.49615489	      1.31965864	     52.50590051	     52.50590051	     16.18046956	    -19.48845978	     21.70552150	    -11.99263055	      4.92255735	      0.19793102	     22.79506381	    -14.25080839	    -11.56668459	     42.33538209	     46.05767662	      0.00000000	      0.00000000	      5.73377265	     -7.91835039	     -1.35285722	     25.01843291	     46.22856992	      0.00000000	      0.00000000
     56.86000000	     -1.25684315	     -3.57842431	      5.75957773	      0.95730589	      0.91511262	      0.53236614	     14.40308892	      4.87661073	    -10.10915168	     29.54647587	     29.54647587	     18.05753130	    -12.27892252	     -0.16433172	     33.11392075	    -10.06440550	      1.49207238	     49.55334873	     49.55334873	     15.08580274	    -19.42661166	     19.80647193	    -12.08177875	      4.67643105	      0.49633840	     23.84786666	    -14.74915481	    -10.50211460	     47.52596486	     45.80092117	      0.00000000	      0.00000000	      3.81779114	     -7.67022778	     -0.96721382	     23.77343836	     46.11902445	      0.00000000	      0.00000000
     56.88000000	     -1.34812876	     -3.45383796	      6.44579151	      0.95547038	      0.91472620	      0.53252306	     14.21770574	      4.70988186	    -10.57088392	     29.61572211	     29.61572211	     18.45511299	    -12.35675354	      0.08878236	     33.55183303	     -9.43217877	      1.79999364	     46.51238553	     46.51238553	     14.14230763	    -19.31017832	     18.66512721	    -12.07386669	      4.33073085	      0.68679106	     25.55261071	    -15.03492255	    -10.10391383	     51.29357656	     45.64871054	      0.00000000	      0.00000000	      1.65904498	     -7.56665152	     -0.58206164	     23.24988949	     45.99567229	      0.00000000	      0.00000000
     56.90000000	     -1.50351712	     -3.33139945	      7.11995326	      0.95369402	      0.91491516	      0.53235351	     13.89239926	      4.53675452	    -11.08879162	     29.30440065	     29.30440065	     18.64771891	    -12.32958601	      0.12671914	     33.87757633	     -8.73078296	      2.26756197	     43.43853704	     43.43853704	     13.37067154	    -19.11613916	     18.36121753	    -11.93854880	      4.00308996	      0.56644438	     27.82036214	    -14.95141025	    -10.11724667	     53.89802868	     45.56689652	      0.00000000	      0.00000000	     -0.51609773	     -7.50127364	     -0.44942054	     22.61886638	     45.92502420	      0.00000000	      0.00000000
     56.92000000	     -1.65488127	     -3.21385039	      7.75998182	      0.95211523	      0.91560815	      0.53192698	     13.38595099	      4.35196015	    -11.70698395	     28.70717421	     28.70717421	     18.77788967	    -11.98209012	      0.13071829	     33.98145444	     -8.03654379	      2.84176317	     40.33509121	     40.33509121	     12.30389695	    -18.80686230	     17.09954093	    -11.83905336	      3.71486463	      0.54920444	     29.73056970	    -15.04204939	     -9.95962892	     57.56590064	     45.44054644	      0.00000000	      0.00000000	     -2.82195735	     -7.50197188	     -0.33882664	     22.78449360	     45.84375789	      0.00000000	      0.00000000
